<svg width="293" height="180" viewBox="0 0 293 180" fill="none" xmlns="http://www.w3.org/2000/svg">
<path d="M179.553 89.7641C179.553 61.5953 166.578 36.4594 146.275 20C125.977 36.4594 113 61.5953 113 89.7641C113 117.931 125.975 143.066 146.275 159.522C166.577 143.066 179.553 117.931 179.553 89.7641Z" fill="#FF5F01"/>
<path d="M112.984 89.7734C112.984 61.6047 125.959 36.4688 146.259 20.0094C130.834 7.50156 111.173 0 89.7656 0C40.1859 0 0 40.1906 0 89.7719C0 139.352 40.1859 179.539 89.7656 179.539C111.177 179.539 130.834 172.042 146.259 159.53C125.959 143.075 112.984 117.941 112.984 89.7734Z" fill="#EA001B"/>
<path d="M202.755 0.00158691C181.344 0.00158691 161.692 7.50315 146.261 20.011C166.564 36.4703 179.539 61.6063 179.539 89.775C179.539 117.942 166.564 143.077 146.261 159.533C161.692 172.044 181.347 179.542 202.755 179.542C252.338 179.542 292.523 139.355 292.523 89.775C292.523 40.1922 252.334 0.00158691 202.755 0.00158691Z" fill="#F79F1A"/>
</svg>
